<?xml version="1.0" standalone="no"?><!DOCTYPE svg PUBLIC "-//W3C//DTD SVG 1.1//EN" "http://www.w3.org/Graphics/SVG/1.1/DTD/svg11.dtd"><svg t="1555903144355" class="icon" style="" viewBox="0 0 1024 1024" version="1.1" xmlns="http://www.w3.org/2000/svg" p-id="2263" xmlns:xlink="http://www.w3.org/1999/xlink" width="32" height="32"><defs><style type="text/css"></style></defs><path d="M864.777649 76.400041H158.64623c-51.92665 0-94.152357 42.225707-94.152357 94.149287v470.755643c0 51.925626 42.225707 94.149287 94.152357 94.149287h390.3248l205.01428 204.944696c4.596691 4.595668 10.617825 6.89606 16.642029 6.89606s12.044314-2.300392 16.639982-6.89606c9.195429-9.194406 9.195429-24.089651 0-33.282011L575.36005 695.276187a23.51967 23.51967 0 0 0-16.639982-6.896061H158.64623c-25.950022 0-47.077202-21.12718-47.077202-47.075155V170.549328c0-25.947975 21.12718-47.075155 47.077202-47.075155h706.131419c25.950022 0 47.075155 21.12718 47.075155 47.075155v470.755643c0 25.947975-21.125133 47.075155-47.075155 47.075155h-93.920066c-13.011338 0-23.539112 10.528797-23.539113 23.538089 0 13.007245 10.527774 23.536043 23.539113 23.536043h93.920066c51.92665 0 94.151333-42.22366 94.151333-94.149287V170.549328c-0.001023-51.924603-42.224684-94.149287-94.151333-94.149287zM252.79654 405.926126c0 26.000164 21.074991 47.077202 47.075155 47.077202 25.997094 0 47.074132-21.077038 47.074132-47.077202 0-25.997094-21.077038-47.075155-47.074132-47.075155-25.999141 0-47.075155 21.078061-47.075155 47.075155z m211.839733 0c0 26.000164 21.077038 47.077202 47.075155 47.077202 25.997094 0 47.074132-21.077038 47.074131-47.077202 0-25.997094-21.077038-47.075155-47.074131-47.075155-25.998117 0-47.075155 21.078061-47.075155 47.075155z m305.990042 0c0-25.997094-21.077038-47.075155-47.075155-47.075155-26.000164 0-47.075155 21.078061-47.075155 47.075155 0 26.000164 21.074991 47.077202 47.075155 47.077202 25.998117 0 47.075155-21.077038 47.075155-47.077202z" p-id="2264"></path></svg>