<?xml version="1.0" standalone="no"?><!DOCTYPE svg PUBLIC "-//W3C//DTD SVG 1.1//EN" "http://www.w3.org/Graphics/SVG/1.1/DTD/svg11.dtd"><svg t="1556020752742" class="icon" style="" viewBox="0 0 1024 1024" version="1.1" xmlns="http://www.w3.org/2000/svg" p-id="7311" xmlns:xlink="http://www.w3.org/1999/xlink" width="32" height="32"><defs><style type="text/css"></style></defs><path d="M348.672 530.944v8.704c0 89.088 72.192 161.792 161.28 161.792s161.28-72.704 161.28-161.792v-8.704h-322.56zM592.896 468.992c19.456 0 35.328-15.872 35.328-35.328 0-19.456-15.872-35.328-35.328-35.328-19.456 0-35.328 15.872-35.328 35.328 0 19.456 15.872 35.328 35.328 35.328zM428.544 468.992c19.456 0 35.328-15.872 35.328-35.328 0-19.456-15.872-35.328-35.328-35.328-19.456 0-35.328 15.872-35.328 35.328 0 19.456 15.872 35.328 35.328 35.328z" fill="#F49A9A" p-id="7312"></path><path d="M950.784 512c0-243.2-197.12-440.832-440.832-440.832s-440.32 197.632-440.32 440.832c0 136.192 61.952 258.048 158.72 338.944v-311.296c0-156.16 125.952-282.624 281.6-282.624s281.6 126.464 281.6 282.624v311.296c97.792-80.896 159.232-202.752 159.232-338.944z" fill="#F49A9A" p-id="7313"></path><path d="M510.464 257.024c-155.648 0-281.6 126.464-281.6 282.624v311.296c76.288 63.488 174.592 101.888 281.6 101.888s205.312-38.4 281.6-101.888v-311.296c0-156.16-125.952-282.624-281.6-282.624z m81.92 141.312c19.456 0 35.328 15.872 35.328 35.328 0 19.456-15.872 35.328-35.328 35.328-19.456 0-35.328-15.872-35.328-35.328 0-19.456 15.872-35.328 35.328-35.328z m-164.352 0c19.456 0 35.328 15.872 35.328 35.328 0 19.456-15.872 35.328-35.328 35.328-19.456 0-35.328-15.872-35.328-35.328 0-19.456 15.872-35.328 35.328-35.328z m81.92 303.104c-89.088 0-161.28-72.704-161.28-161.792v-8.704H670.72v8.704c0.512 89.088-71.68 161.792-160.768 161.792z" fill="#FFFFFF" p-id="7314"></path></svg>